<?xml version="1.0" encoding="UTF-8"?>
<svg version="1.1" xmlns="http://www.w3.org/2000/svg" width="500" height="500">
<path d="M0 0 C165 0 330 0 500 0 C500 165 500 330 500 500 C335 500 170 500 0 500 C0 335 0 170 0 0 Z " fill="#FEFEFE" transform="translate(0,0)"/>
<path d="M0 0 C61.05 0 122.1 0 185 0 C185 22.44 185 44.88 185 68 C123.95 68 62.9 68 0 68 C0 45.56 0 23.12 0 0 Z " fill="#202423" transform="translate(86,216)"/>
<path d="M0 0 C1.19367188 -0.01675781 2.38734375 -0.03351563 3.6171875 -0.05078125 C8.22294907 0.42620742 11.55824926 1.90242434 15 5 C16.66798111 8.42862784 16.77053697 11.62371732 16.125 15.3125 C14.03751863 19.33835693 12.38559575 21.74431434 8.125 23.3125 C4.62890625 23.61328125 4.62890625 23.61328125 0.6875 23.625 C-0.61058594 23.64175781 -1.90867188 23.65851563 -3.24609375 23.67578125 C-8.03532966 23.19634213 -10.63576678 21.8081263 -13.6875 18.125 C-15.25747934 14.40662788 -15.60774707 11.29026979 -14.875 7.3125 C-11.04893426 1.02682058 -7.10949456 0.02293385 0 0 Z " fill="#EBEEED" transform="translate(202.875,238.6875)"/>
<path d="M0 0 C1.29550781 -0.02835938 2.59101563 -0.05671875 3.92578125 -0.0859375 C8.25563222 0.44461537 10.33780772 1.63389287 13.6875 4.375 C16.16341878 8.08887818 16.22657468 11.07082561 15.6875 15.375 C13.89390921 19.62297818 11.78806579 21.37527202 7.6875 23.375 C4.12890625 23.80859375 4.12890625 23.80859375 0.25 23.8125 C-1.02746094 23.83183594 -2.30492187 23.85117187 -3.62109375 23.87109375 C-8.37946605 23.23160879 -11.69755902 21.43037944 -14.6875 17.625 C-15.65090457 14.15674356 -16.01324252 10.89973488 -15.3125 7.375 C-10.7512153 1.70421361 -7.17479833 0.07096734 0 0 Z " fill="#E7EAEA" transform="translate(166.3125,238.625)"/>
<path d="M0 0 C2.475 0.495 2.475 0.495 5 1 C6.58203125 3.8359375 6.58203125 3.8359375 7.8125 7.375 C8.23144531 8.53773438 8.65039062 9.70046875 9.08203125 10.8984375 C10 14 10 14 10 17 C13.30669336 14.26307534 14.86780532 10.60004821 16.6875 6.8125 C17.00783203 6.15830078 17.32816406 5.50410156 17.65820312 4.83007812 C18.44428292 3.22272093 19.22288683 1.61171142 20 0 C21.98 0 23.96 0 26 0 C28.64 5.61 31.28 11.22 34 17 C34.598125 15.494375 35.19625 13.98875 35.8125 12.4375 C37.48101512 8.26324332 39.2076453 4.12241581 41 0 C42.32 0 43.64 0 45 0 C43.69796606 6.72717535 41.66930715 12.70210345 39 19 C38.33012636 20.6653803 37.66258471 22.33170635 37 24 C35.35 24 33.7 24 32 24 C27.5 15 27.5 15 23 6 C22.43410156 7.13179687 21.86820312 8.26359375 21.28515625 9.4296875 C18.85677083 14.28645833 16.42838542 19.14322917 14 24 C12.02 24 10.04 24 8 24 C5.36 16.08 2.72 8.16 0 0 Z " fill="#2E302F" transform="translate(280,239)"/>
<path d="M0 0 C1.98 0 3.96 0 6 0 C7.9765625 2.1953125 7.9765625 2.1953125 9.625 5.125 C10.49705078 6.62353516 10.49705078 6.62353516 11.38671875 8.15234375 C11.91910156 9.09207031 12.45148438 10.03179687 13 11 C13.79830804 12.23843095 14.60736951 13.47017083 15.4375 14.6875 C16.2109375 15.8321875 16.2109375 15.8321875 17 17 C21.00606805 13.40344113 23.37234858 9.13781158 25.82421875 4.42578125 C26.8046875 2.703125 26.8046875 2.703125 29 0 C30.98 0 32.96 0 35 0 C35 7.59 35 15.18 35 23 C33.68 23 32.36 23 31 23 C30.67 17.72 30.34 12.44 30 7 C29.33613281 8.155 28.67226562 9.31 27.98828125 10.5 C27.09731668 12.00057191 26.20533655 13.50054116 25.3125 15 C24.87744141 15.763125 24.44238281 16.52625 23.99414062 17.3125 C20.74632353 22.70147059 20.74632353 22.70147059 17.5 24 C13.35045602 22.34018241 11.83510787 18.76706328 9.6875 15 C9.23310547 14.236875 8.77871094 13.47375 8.31054688 12.6875 C7.19062327 10.80131287 6.09313287 8.90183893 5 7 C4.67 12.28 4.34 17.56 4 23 C2.68 23 1.36 23 0 23 C0 15.41 0 7.82 0 0 Z " fill="#E7EAE9" transform="translate(109,239)"/>
<path d="M0 0 C2.3203125 -0.23046875 2.3203125 -0.23046875 5 0 C6.5546875 1.51171875 6.5546875 1.51171875 7.875 3.6875 C8.37 4.49703125 8.865 5.3065625 9.375 6.140625 C18 21.31730769 18 21.31730769 18 24 C16.35 24 14.7 24 13 24 C12.67 22.68 12.34 21.36 12 20 C9.04019468 20.08670137 6.08353131 20.19353023 3.125 20.3125 C2.28324219 20.33505859 1.44148438 20.35761719 0.57421875 20.38085938 C-0.63427734 20.4340332 -0.63427734 20.4340332 -1.8671875 20.48828125 C-2.61081543 20.51446533 -3.35444336 20.54064941 -4.12060547 20.56762695 C-6.40733826 20.86729591 -6.40733826 20.86729591 -8 24 C-9.32 24 -10.64 24 -12 24 C-10.42195846 18.39523177 -7.73583615 13.64949374 -4.875 8.625 C-4.17310547 7.37783203 -4.17310547 7.37783203 -3.45703125 6.10546875 C-2.30929451 4.06765046 -1.15686718 2.03264431 0 0 Z " fill="#2F3130" transform="translate(339,239)"/>
<path d="M0 0 C3.3125 2.125 3.3125 2.125 5 5 C5.57991403 9.14224306 5.34549674 10.48175489 3 14 C-2.19968854 15.73322951 -7.58369474 15.59653925 -13 15 C-16.3125 12.875 -16.3125 12.875 -18 10 C-18.625 6.9375 -18.625 6.9375 -18 4 C-12.7111536 -1.32759253 -7.10577394 -1.04630474 0 0 Z " fill="#202423" transform="translate(173,243)"/>
<path d="M0 0 C1.11246094 0.00128906 2.22492188 0.00257813 3.37109375 0.00390625 C6.84357265 0.47568735 8.7657995 1.36154627 11.5625 3.4375 C12.96185013 6.23620027 12.81515405 8.34248792 12.5625 11.4375 C11.01743534 13.47417615 9.84103844 14.29823078 7.5625 15.4375 C5.2751402 15.61234831 2.98108557 15.70470049 0.6875 15.75 C-0.54742187 15.78738281 -1.78234375 15.82476562 -3.0546875 15.86328125 C-6.4375 15.4375 -6.4375 15.4375 -8.8515625 13.63671875 C-11.1628775 10.43161937 -10.98774919 8.28924436 -10.4375 4.4375 C-7.36995114 0.3106537 -5.02496443 -0.08713811 0 0 Z " fill="#1E2221" transform="translate(202.4375,242.5625)"/>
<path d="M0 0 C6 0 6 0 7.73510742 1.12988281 C8.18732666 1.64905273 8.6395459 2.16822266 9.10546875 2.703125 C9.61400391 3.27160156 10.12253906 3.84007812 10.64648438 4.42578125 C11.15501953 5.02777344 11.66355469 5.62976563 12.1875 6.25 C12.70763672 6.83652344 13.22777344 7.42304688 13.76367188 8.02734375 C16.32428894 10.93787911 18.66859549 13.89146066 21 17 C21.33 11.39 21.66 5.78 22 0 C23.32 0 24.64 0 26 0 C26 7.59 26 15.18 26 23 C20 23 20 23 17.62109375 21.0234375 C16.90050781 20.14945312 16.17992187 19.27546875 15.4375 18.375 C14.67179688 17.46621094 13.90609375 16.55742187 13.1171875 15.62109375 C12.41851562 14.75613281 11.71984375 13.89117187 11 13 C7.95851816 8.95876414 7.95851816 8.95876414 4 6 C4 11.61 4 17.22 4 23 C2.68 23 1.36 23 0 23 C0 15.41 0 7.82 0 0 Z " fill="#E6E9E9" transform="translate(226,239)"/>
<path d="M0 0 C1.65 0 3.3 0 5 0 C5 3.3 5 6.6 5 10 C9.22344651 10.09181405 11.17370043 9.68966736 14.48046875 6.9296875 C16.17439222 5.29470539 17.83999891 3.62975802 19.47265625 1.93359375 C22.54790804 -0.41918776 24.21907523 -0.38961634 28 0 C24.64745966 3.45413248 21.1686789 6.60667543 17.453125 9.66796875 C15.87220817 10.9579691 15.87220817 10.9579691 15 13 C15.56203125 13.24621094 16.1240625 13.49242187 16.703125 13.74609375 C19.40477525 15.22097424 21.46395952 17.00431649 23.75 19.0625 C24.54921875 19.77535156 25.3484375 20.48820312 26.171875 21.22265625 C26.77515625 21.80917969 27.3784375 22.39570313 28 23 C28 23.33 28 23.66 28 24 C24.14482993 24.40252511 22.4536122 24.31536241 19.21875 22.06640625 C18.3215625 21.24011719 17.424375 20.41382813 16.5 19.5625 C12.65078938 16.02852646 10.26285904 14.42567242 5 14 C5 17.3 5 20.6 5 24 C3.35 24 1.7 24 0 24 C0 16.08 0 8.16 0 0 Z " fill="#2D2F2E" transform="translate(393,239)"/>
<path d="M0 0 C1.32 0 2.64 0 4 0 C4 6.6 4 13.2 4 20 C10.6 20 17.2 20 24 20 C24 21.32 24 22.64 24 24 C16.08 24 8.16 24 0 24 C0 16.08 0 8.16 0 0 Z " fill="#252726" transform="translate(363,239)"/>
<path d="M0 0 C0.66 0 1.32 0 2 0 C3.00508801 1.78881736 4.00392736 3.58114696 5 5.375 C5.556875 6.37273437 6.11375 7.37046875 6.6875 8.3984375 C8 11 8 11 8 13 C6.35 13 4.7 13 3 13 C2.67 11.68 2.34 10.36 2 9 C-0.95980532 9.08670137 -3.91646869 9.19353023 -6.875 9.3125 C-8.13763672 9.34633789 -8.13763672 9.34633789 -9.42578125 9.38085938 C-10.23144531 9.41630859 -11.03710938 9.45175781 -11.8671875 9.48828125 C-12.61081543 9.51446533 -13.35444336 9.54064941 -14.12060547 9.56762695 C-16.40733826 9.86729591 -16.40733826 9.86729591 -18 13 C-19.32 13 -20.64 13 -22 13 C-20.80086322 8.60316512 -19.5711885 5.90159066 -16 3 C-15.34 3 -14.68 3 -14 3 C-14 3.66 -14 4.32 -14 5 C-9.71 5 -5.42 5 -1 5 C-0.67 3.35 -0.34 1.7 0 0 Z " fill="#1C1E1E" transform="translate(349,250)"/>
<path d="M0 0 C1.65 0 3.3 0 5 0 C5.01417969 0.67546875 5.02835937 1.3509375 5.04296875 2.046875 C5.24548655 7.94606477 5.24548655 7.94606477 8.5625 12.625 C9.366875 13.07875 10.17125 13.5325 11 14 C9.02 14 7.04 14 5 14 C5 17.3 5 20.6 5 24 C3.35 24 1.7 24 0 24 C0 16.08 0 8.16 0 0 Z " fill="#4E504F" transform="translate(393,239)"/>
<path d="M0 0 C3.47661483 0.86915371 5.68515727 1.71829861 8.375 4.125 C10.5086553 7.89992861 10.70547457 10.7585492 10 15 C8.23138521 19.1888245 6.06185027 21.02114987 2 23 C1.34 23 0.68 23 0 23 C0 22.01 0 21.02 0 20 C-2.97 20 -5.94 20 -9 20 C-9 19.67 -9 19.34 -9 19 C-8.07316406 18.87882812 -7.14632812 18.75765625 -6.19140625 18.6328125 C-4.99386719 18.46523438 -3.79632813 18.29765625 -2.5625 18.125 C-1.36753906 17.96257812 -0.17257813 17.80015625 1.05859375 17.6328125 C2.02925781 17.42398437 2.99992188 17.21515625 4 17 C5.42041821 14.15916359 5.31452272 12.14522722 5 9 C3.6715404 6.50279176 3.6715404 6.50279176 1 5 C-1.99376386 4.38681945 -4.94977179 4.13035163 -8 4 C-8 3.67 -8 3.34 -8 3 C-6.865625 2.690625 -5.73125 2.38125 -4.5625 2.0625 C-1.21224901 1.37075469 -1.21224901 1.37075469 0 0 Z " fill="#F5F7F7" transform="translate(172,239)"/>
<path d="M0 0 C1.98 0 3.96 0 6 0 C6.66 0.99 7.32 1.98 8 3 C7.67 3.99 7.34 4.98 7 6 C6.01 6 5.02 6 4 6 C4 11.61 4 17.22 4 23 C2.68 23 1.36 23 0 23 C0 15.41 0 7.82 0 0 Z " fill="#E3E5E4" transform="translate(226,239)"/>
<path d="M0 0 C0.33 0 0.66 0 1 0 C1 5.61 1 11.22 1 17 C-0.98 16.67 -2.96 16.34 -5 16 C-5 15.34 -5 14.68 -5 14 C-6.32 14.33 -7.64 14.66 -9 15 C-7.68944504 12.68637791 -6.3766597 10.37407322 -5.0625 8.0625 C-4.50272461 7.0734668 -4.50272461 7.0734668 -3.93164062 6.06445312 C-1.11328125 1.11328125 -1.11328125 1.11328125 0 0 Z " fill="#2F3231" transform="translate(139,245)"/>
<path d="M0 0 C3.84643765 3.84643765 5.69872117 6.22697724 8 11 C7.75 13.4375 7.75 13.4375 7 15 C5.824375 15.2165625 5.824375 15.2165625 4.625 15.4375 C2.03578982 15.87798925 2.03578982 15.87798925 0 17 C0 11.39 0 5.78 0 0 Z " fill="#333736" transform="translate(113,245)"/>
<path d="M0 0 C0.66 0 1.32 0 2 0 C2.83848804 1.45537568 3.67063934 2.91440373 4.5 4.375 C4.9640625 5.18710938 5.428125 5.99921875 5.90625 6.8359375 C7 9 7 9 7 11 C3.04 11 -0.92 11 -5 11 C-3.78065514 6.96678237 -2.44045073 3.45730521 0 0 Z " fill="#E5E6E6" transform="translate(341,244)"/>
<path d="M0 0 C0.66 0.33 1.32 0.66 2 1 C0.59508402 6.47917233 -2.00323423 11.94007992 -6 16 C-8.69921875 16.2578125 -8.69921875 16.2578125 -11 16 C-11 12.02277139 -9.77284035 11.77284035 -7 9 C-5.64987778 6.93652963 -4.38961806 4.83759279 -3.1484375 2.70703125 C-2 1 -2 1 0 0 Z " fill="#ECEFEE" transform="translate(135,246)"/>
<path d="M0 0 C0.99 0 1.98 0 3 0 C3 7.26 3 14.52 3 22 C1.35 22 -0.3 22 -2 22 C-1.84152588 21.42926758 -1.68305176 20.85853516 -1.51977539 20.27050781 C-1.00638657 18.02789812 -0.79834104 15.96682085 -0.68359375 13.671875 C-0.64169922 12.87265625 -0.59980469 12.0734375 -0.55664062 11.25 C-0.49766602 10.0125 -0.49766602 10.0125 -0.4375 8.75 C-0.39431641 7.90953125 -0.35113281 7.0690625 -0.30664062 6.203125 C-0.20091457 4.13559329 -0.09998705 2.06781719 0 0 Z " fill="#FBFEFD" transform="translate(249,240)"/>
<path d="M0 0 C4.66354915 0.19067322 6.99894993 2.39753534 10.3125 5.5 C11.19550781 6.3146875 12.07851563 7.129375 12.98828125 7.96875 C15 10 15 10 15 11 C11.06204314 11.42067195 9.36917581 11.24290419 6.0078125 9.03125 C4.58082031 7.77828125 4.58082031 7.77828125 3.125 6.5 C2.15820312 5.6646875 1.19140625 4.829375 0.1953125 3.96875 C-0.52914063 3.3190625 -1.25359375 2.669375 -2 2 C-1.34 1.34 -0.68 0.68 0 0 Z " fill="#2F302F" transform="translate(406,252)"/>
<path d="M0 0 C3.86790003 1.93395001 4.87634236 2.7803006 7.25 6.125 C8.03117188 7.21167969 8.03117188 7.21167969 8.828125 8.3203125 C9.40820312 9.15175781 9.40820312 9.15175781 10 10 C7 11 7 11 4.8125 10.0625 C4.214375 9.711875 3.61625 9.36125 3 9 C3.33 8.01 3.66 7.02 4 6 C3.34 5.34 2.68 4.68 2 4 C1.67 8.29 1.34 12.58 1 17 C0.67 17 0.34 17 0 17 C0 11.39 0 5.78 0 0 Z " fill="#414342" transform="translate(230,245)"/>
<path d="M0 0 C2.50037734 2.17424117 3.43628586 3.73045798 4 7 C2.35 7 0.7 7 -1 7 C-1.33 5.68 -1.66 4.36 -2 3 C-7.94 3 -13.88 3 -20 3 C-20 2.67 -20 2.34 -20 2 C-19.42967041 1.97494385 -18.85934082 1.9498877 -18.27172852 1.92407227 C-15.70173843 1.80843451 -13.13214473 1.68556376 -10.5625 1.5625 C-9.66466797 1.52318359 -8.76683594 1.48386719 -7.84179688 1.44335938 C-6.98779297 1.40146484 -6.13378906 1.35957031 -5.25390625 1.31640625 C-4.46314697 1.27974854 -3.6723877 1.24309082 -2.85766602 1.20532227 C-0.98598559 1.19436743 -0.98598559 1.19436743 0 0 Z " fill="#444645" transform="translate(353,256)"/>
<path d="M0 0 C1.32 0.33 2.64 0.66 4 1 C3.01 1 2.02 1 1 1 C1.02320313 2.25296875 1.04640625 3.5059375 1.0703125 4.796875 C1.08907427 6.4479107 1.10727403 8.09895285 1.125 9.75 C1.15013672 10.9875 1.15013672 10.9875 1.17578125 12.25 C1.18222656 13.04921875 1.18867188 13.8484375 1.1953125 14.671875 C1.20578613 15.4050293 1.21625977 16.13818359 1.22705078 16.89355469 C0.96777544 19.29896076 0.19225925 20.91251494 -1 23 C-2.65 21.35 -4.3 19.7 -6 18 C-5.505 16.515 -5.505 16.515 -5 15 C-3.68 15.66 -2.36 16.32 -1 17 C-0.67 11.39 -0.34 5.78 0 0 Z " fill="#E3E6E5" transform="translate(248,239)"/>
<path d="M0 0 C1.32 0 2.64 0 4 0 C4 3.63 4 7.26 4 11 C3.01 11 2.02 11 1 11 C0.67 11.99 0.34 12.98 0 14 C0 9.38 0 4.76 0 0 Z " fill="#2D3030" transform="translate(394,239)"/>
<path d="M0 0 C6.93 0.495 6.93 0.495 14 1 C14 1.99 14 2.98 14 4 C9.71 4 5.42 4 1 4 C0.67 2.68 0.34 1.36 0 0 Z " fill="#F4F8F7" transform="translate(158,258)"/>
<path d="M0 0 C1.32 0 2.64 0 4 0 C3.34 2.97 2.68 5.94 2 9 C0.68 9.33 -0.64 9.66 -2 10 C-3.39195915 5.82412255 -1.82323219 3.86525224 0 0 Z " fill="#323534" transform="translate(321,239)"/>
<path d="M0 0 C0.12375 0.639375 0.2475 1.27875 0.375 1.9375 C0.684375 2.9584375 0.684375 2.9584375 1 4 C1.66 4.33 2.32 4.66 3 5 C1.68 7.64 0.36 10.28 -1 13 C-1.33 12.34 -1.66 11.68 -2 11 C-2.66 11 -3.32 11 -4 11 C-4.33 11.66 -4.66 12.32 -5 13 C-5.33 12.34 -5.66 11.68 -6 11 C-4.78515625 8.3984375 -4.78515625 8.3984375 -3.0625 5.375 C-2.21365234 3.87066406 -2.21365234 3.87066406 -1.34765625 2.3359375 C-0.90292969 1.56507813 -0.45820313 0.79421875 0 0 Z " fill="#323534" transform="translate(337,242)"/>
<path d="M0 0 C2.375 -0.125 2.375 -0.125 5 0 C7 2 7 2 7 5 C5.35 4.67 3.7 4.34 2 4 C1.67 4.99 1.34 5.98 1 7 C0.01 7.33 -0.98 7.66 -2 8 C-1.34 5.36 -0.68 2.72 0 0 Z " fill="#212322" transform="translate(339,239)"/>
<path d="M0 0 C1.21236328 0.01353516 1.21236328 0.01353516 2.44921875 0.02734375 C3.37154297 0.04474609 3.37154297 0.04474609 4.3125 0.0625 C2.3125 3.0625 2.3125 3.0625 -0.2890625 3.79296875 C-1.78566406 4.01919922 -1.78566406 4.01919922 -3.3125 4.25 C-4.31539062 4.40855469 -5.31828125 4.56710938 -6.3515625 4.73046875 C-7.50785156 4.89482422 -7.50785156 4.89482422 -8.6875 5.0625 C-8.375 3.125 -8.375 3.125 -7.6875 1.0625 C-4.80538698 0.10179566 -2.98899956 -0.04331883 0 0 Z " fill="#F7F9F9" transform="translate(167.6875,238.9375)"/>
<path d="M0 0 C1.32 0.66 2.64 1.32 4 2 C2.79618552 4.49361571 1.54571278 6.68143083 0 9 C-1.32 9 -2.64 9 -4 9 C-2.94124926 5.59687262 -1.99097846 2.98646769 0 0 Z " fill="#282828" transform="translate(331,254)"/>
<path d="M0 0 C1.134375 0.020625 2.26875 0.04125 3.4375 0.0625 C3.4375 0.3925 3.4375 0.7225 3.4375 1.0625 C6.4075 1.5575 6.4075 1.5575 9.4375 2.0625 C9.4375 2.3925 9.4375 2.7225 9.4375 3.0625 C8.68984375 3.11148438 7.9421875 3.16046875 7.171875 3.2109375 C6.18703125 3.28570312 5.2021875 3.36046875 4.1875 3.4375 C2.72570312 3.54191406 2.72570312 3.54191406 1.234375 3.6484375 C-1.45883189 4.04715249 -3.23213279 4.69757063 -5.5625 6.0625 C-4.48849278 0.07874549 -4.48849278 0.07874549 0 0 Z " fill="#292D2C" transform="translate(160.5625,235.9375)"/>
<path d="M0 0 C0.33 0.99 0.66 1.98 1 3 C1.99 3 2.98 3 4 3 C4 2.34 4 1.68 4 1 C4.99 0.67 5.98 0.34 7 0 C6.625 1.9375 6.625 1.9375 6 4 C5.01 4.495 5.01 4.495 4 5 C4 5.99 4 6.98 4 8 C2.68 8 1.36 8 0 8 C-0.38063221 5.6739143 -0.71269945 3.33944736 -1 1 C-0.67 0.67 -0.34 0.34 0 0 Z " fill="#222222" transform="translate(288,255)"/>
<path d="M0 0 C1.32 0.66 2.64 1.32 4 2 C2.25 7.75 2.25 7.75 0 10 C0 9.34 0 8.68 0 8 C-0.99 8 -1.98 8 -3 8 C-1.125 2.25 -1.125 2.25 0 0 Z " fill="#373938" transform="translate(298,242)"/>
<path d="M0 0 C0.66 1.32 1.32 2.64 2 4 C0.02 4.66 -1.96 5.32 -4 6 C-4 5.01 -4 4.02 -4 3 C-6.97 3 -9.94 3 -13 3 C-13 2.67 -13 2.34 -13 2 C-8.71 1.34 -4.42 0.68 0 0 Z " fill="#D4D8D7" transform="translate(176,256)"/>
<path d="M0 0 C0.94875 0.04125 1.8975 0.0825 2.875 0.125 C-0.29820782 3.66086014 -2.29243695 5.71078031 -7.125 6.125 C-4.34782609 0.17391304 -4.34782609 0.17391304 0 0 Z " fill="#2C2D2C" transform="translate(418.125,238.875)"/>
<path d="M0 0 C1.98 0.66 3.96 1.32 6 2 C5.34 3.32 4.68 4.64 4 6 C-1.94 5.01 -1.94 5.01 -8 4 C-8 3.67 -8 3.34 -8 3 C-6.865625 2.690625 -5.73125 2.38125 -4.5625 2.0625 C-1.21224901 1.37075469 -1.21224901 1.37075469 0 0 Z " fill="#E1E3E2" transform="translate(172,239)"/>
<path d="M0 0 C0.66 0 1.32 0 2 0 C3.42944945 2.35438733 4.08661261 3.48032433 3.625 6.25 C3.41875 6.8275 3.2125 7.405 3 8 C0.69 7.34 -1.62 6.68 -4 6 C-3.01 5.67 -2.02 5.34 -1 5 C-0.67 3.35 -0.34 1.7 0 0 Z " fill="#242524" transform="translate(349,250)"/>
<path d="M0 0 C0.99 0 1.98 0 3 0 C5.25 2.8125 5.25 2.8125 7 6 C6.67 6.99 6.34 7.98 6 9 C5.34 9 4.68 9 4 9 C0 3.70588235 0 3.70588235 0 0 Z " fill="#F0F2F1" transform="translate(232,242)"/>
<path d="M0 0 C0.33 0.99 0.66 1.98 1 3 C-2.57644848 4.2380014 -5.33694766 3.74926071 -9 3 C-8.67 2.01 -8.34 1.02 -8 0 C-2.25 -1.125 -2.25 -1.125 0 0 Z " fill="#1A1C1B" transform="translate(407,249)"/>
<path d="M0 0 C2.31 0.66 4.62 1.32 7 2 C7 2.99 7 3.98 7 5 C6.34 5.66 5.68 6.32 5 7 C1.18461538 4.53846154 1.18461538 4.53846154 0.25 1.8125 C0.1675 1.214375 0.085 0.61625 0 0 Z " fill="#E3E6E6" transform="translate(208,239)"/>
<path d="M0 0 C1.4540625 0.0309375 1.4540625 0.0309375 2.9375 0.0625 C2.9375 0.7225 2.9375 1.3825 2.9375 2.0625 C0.6275 3.3825 -1.6825 4.7025 -4.0625 6.0625 C-4.105221 4.39638095 -4.10313832 2.72867115 -4.0625 1.0625 C-3.0625 0.0625 -3.0625 0.0625 0 0 Z " fill="#242625" transform="translate(303.0625,238.9375)"/>
<path d="M0 0 C1.67542976 0.28604898 3.34385343 0.61781233 5 1 C5 2.32 5 3.64 5 5 C3.35 5 1.7 5 0 5 C-0.5625 3.0625 -0.5625 3.0625 -1 1 C-0.67 0.67 -0.34 0.34 0 0 Z " fill="#202221" transform="translate(312,258)"/>
<path d="M0 0 C1.32 1.32 2.64 2.64 4 4 C3.67 4.66 3.34 5.32 3 6 C1.33499557 6.34153937 -0.33178677 6.67449498 -2 7 C-2.66 7.66 -3.32 8.32 -4 9 C-4.33 8.01 -4.66 7.02 -5 6 C-4.360625 5.566875 -3.72125 5.13375 -3.0625 4.6875 C-0.73253997 3.08760823 -0.73253997 3.08760823 0 0 Z " fill="#2E3231" transform="translate(181,254)"/>
<path d="M0 0 C1.875 0.1875 1.875 0.1875 4 1 C5.25 3.5625 5.25 3.5625 6 6 C4.35 6 2.7 6 1 6 C0.67 4.02 0.34 2.04 0 0 Z " fill="#ECEEED" transform="translate(176,242)"/>
<path d="M0 0 C0.94875 0.04125 1.8975 0.0825 2.875 0.125 C3.205 1.445 3.535 2.765 3.875 4.125 C0.5 4.25 0.5 4.25 -3.125 4.125 C-3.785 3.465 -4.445 2.805 -5.125 2.125 C-3.125 0.125 -3.125 0.125 0 0 Z " fill="#2D2F2E" transform="translate(199.125,242.875)"/>
<path d="M0 0 C0.5625 1.9375 0.5625 1.9375 1 4 C0 5 0 5 -2.5625 5.0625 C-3.7690625 5.0315625 -3.7690625 5.0315625 -5 5 C-5 4.01 -5 3.02 -5 2 C-3.35 1.34 -1.7 0.68 0 0 Z " fill="#F4F8F7" transform="translate(129,257)"/>
<path d="M0 0 C1.5 1.125 1.5 1.125 3 3 C3.1875 6.1875 3.1875 6.1875 3 9 C0 5.375 0 5.375 0 2 C-0.99 1.67 -1.98 1.34 -3 1 C-2.01 0.67 -1.02 0.34 0 0 Z M-5 2 C-3 3 -3 3 -3 3 Z " fill="#353938" transform="translate(212,245)"/>
<path d="M0 0 C1.9375 0.625 1.9375 0.625 4 2 C4.75 5.125 4.75 5.125 5 8 C2.5 5.6875 2.5 5.6875 0 3 C0 2.01 0 1.02 0 0 Z " fill="#282C2B" transform="translate(242,248)"/>
<path d="M0 0 C1.32 0.33 2.64 0.66 4 1 C4 2.98 4 4.96 4 7 C3.01 7 2.02 7 1 7 C0.67 4.69 0.34 2.38 0 0 Z " fill="#232726" transform="translate(284,247)"/>
<path d="M0 0 C0.598125 0.20625 1.19625 0.4125 1.8125 0.625 C0.8125 2.625 0.8125 2.625 -2.25 3.75 C-3.7040625 4.183125 -3.7040625 4.183125 -5.1875 4.625 C-5.1875 3.635 -5.1875 2.645 -5.1875 1.625 C-2.1875 -0.375 -2.1875 -0.375 0 0 Z " fill="#292C2B" transform="translate(162.1875,243.375)"/>
<path d="M0 0 C0.66 0.33 1.32 0.66 2 1 C1.01 3.31 0.02 5.62 -1 8 C-1.99 7.67 -2.98 7.34 -4 7 C-3.67 6.01 -3.34 5.02 -3 4 C-2.34 4 -1.68 4 -1 4 C-0.67 2.68 -0.34 1.36 0 0 Z " fill="#2F2F2F" transform="translate(295,255)"/>
</svg>
